<svg width="29" height="29" viewBox="0 0 29 29" fill="none" xmlns="http://www.w3.org/2000/svg">
<g clip-path="url(#clip0_3998_6866)">
<path d="M14.4988 8.48928C16.339 8.48928 17.5804 9.28417 18.2881 9.94839L21.0539 7.24795C19.3552 5.66906 17.1448 4.69995 14.4988 4.69995C10.6659 4.69995 7.3557 6.89951 5.74414 10.1008L8.91281 12.5617C9.70769 10.1988 11.9072 8.48928 14.4988 8.48928Z" fill="#EA4335"/>
<path d="M23.908 14.7178C23.908 13.912 23.8427 13.324 23.7011 12.7142H14.5V16.3511H19.9009C19.792 17.2549 19.204 18.616 17.8973 19.5307L20.9898 21.9262C22.8409 20.2167 23.908 17.7013 23.908 14.7178Z" fill="#4285F4"/>
<path d="M8.92411 16.4382C8.71722 15.8284 8.59744 15.1751 8.59744 14.4999C8.59744 13.8248 8.71722 13.1715 8.91322 12.5617L5.74455 10.1008C5.08033 11.4293 4.69922 12.9211 4.69922 14.4999C4.69922 16.0788 5.08033 17.5706 5.74455 18.8991L8.92411 16.4382Z" fill="#FBBC05"/>
<path d="M14.4996 24.3C17.1456 24.3 19.367 23.4289 20.9894 21.9262L17.897 19.5307C17.0694 20.1078 15.9587 20.5107 14.4996 20.5107C11.9081 20.5107 9.70852 18.8011 8.92452 16.4382L5.75586 18.8991C7.36741 22.1005 10.6667 24.3 14.4996 24.3Z" fill="#34A853"/>
</g>
<defs>
<clipPath id="clip0_3998_6866">
<rect width="28" height="28" fill="white" transform="translate(0.5 0.5)"/>
</clipPath>
</defs>
</svg>
